# xmcd
#
# Track frame offsets: 
#        150
#        21684
#        39853
#        62007
#        86276
#        102994
#        120707
#        143592
#        160578
#        179296
#        201373
#        222798
#
# Disc length: 3183 seconds
#
# Revision: 0
# Processed by: cddbd v1.5.2PL0 Copyright (c) Steve Scherf et al.
# Submitted via: ExactAudioCopy v0.99pb4
#
DISCID=9e0c6d0c
DTITLE=Lizz Wright - The Orchard
DYEAR=2008
DGENRE=Blues
TTITLE0=Comming Home
TTITLE1=My Heart
TTITLE2=I Idolize You
TTITLE3=Hey Mann
TTITLE4=Another Angel
TTITLE5=When I Fall
TTITLE6=Leave Me Standing Alone
TTITLE7=Speak Your Heart
TTITLE8=This Is
TTITLE9=Song For Mia
TTITLE10=Thank You
TTITLE11=Strange
EXTD=
EXTT0=
EXTT1=
EXTT2=
EXTT3=
EXTT4=
EXTT5=
EXTT6=
EXTT7=
EXTT8=
EXTT9=
EXTT10=
EXTT11=
PLAYORDER=
